# Blender v3.2.1 OBJ File: ''
# www.blender.org
mtllib Tree1.mtl
o Tree1
v -0.044127 2.555527 0.848705
v 0.023134 2.556312 0.895409
v -0.220384 2.557454 1.074404
v -0.044741 2.551826 0.525229
v -0.049392 2.214796 0.797846
v 0.022670 2.207138 0.846705
v 0.096687 2.556179 0.859908
v -0.037722 2.554641 0.769077
v -0.615201 2.557454 0.530995
v -0.041190 2.555158 0.815443
v -0.042593 2.185869 0.711760
v -0.051452 2.081508 0.777950
v 0.022493 2.073650 0.828086
v 0.101532 2.212972 0.809480
v 0.418430 2.557454 0.866837
v 0.000223 2.554553 0.749073
v -0.220385 2.557454 -0.012415
v -0.790361 2.670447 1.083243
v 0.020343 1.310089 0.557583
v 0.103414 2.079637 0.789888
v 0.100193 2.555687 0.815745
v 0.243277 2.670446 1.419088
v 0.035868 2.554488 0.731794
v 0.036268 2.277192 0.685046
v -0.015975 2.554840 0.277211
v -0.790361 2.670447 -0.003580
v -1.014245 2.711389 0.541465
v -0.342543 2.711387 1.465976
v -0.044475 2.149229 0.704697
v -0.076389 1.317801 0.491646
v 0.126202 1.315964 0.507346
v 0.110391 2.147358 0.716635
v 0.108331 2.184046 0.723394
v 0.102965 2.555292 0.780284
v 0.744281 2.711387 1.112839
v 0.020880 2.553755 0.381778
v 0.026099 2.553721 0.386379
v 0.027082 2.555265 0.254843
v -0.020677 2.554087 0.339984
v -0.342543 2.711388 -0.383046
v -1.074759 3.020780 0.883809
v -0.679944 3.020780 1.427228
v -0.020683 2.554078 0.340745
v -0.076389 0.953442 0.292646
v 0.020343 0.945730 0.358584
v 0.126202 0.951606 0.308347
v 0.135329 1.329553 0.391172
v 0.066167 2.554861 0.754626
v -0.041121 3.020780 1.634794
v 0.882092 2.670447 0.539831
v 0.597701 3.020780 1.427228
v 0.073435 2.554293 0.352981
v 0.033756 2.555331 0.251424
v 0.033756 2.516836 0.268573
v -0.015975 2.530208 0.288215
v -0.016348 2.554778 0.282316
v 0.243277 2.670447 -0.339426
v -0.679944 3.020781 -0.331297
v -1.074759 3.020780 0.212121
v -0.067263 1.331389 0.375471
v -0.019313 2.554284 0.323576
v -0.067263 0.967030 0.176472
v 0.020343 0.733419 0.163619
v 0.126202 0.743216 0.113998
v 0.135329 0.965194 0.192173
v 0.038596 1.337265 0.325234
v 0.075876 2.554327 0.350828
v 0.418430 2.557454 0.195152
v 0.992516 3.020780 0.883809
v -0.041121 3.020781 -0.538864
v -0.965205 3.519575 0.550637
v -0.827150 3.437015 1.121909
v -0.326390 3.519577 1.429894
v 0.036446 2.101341 0.651419
v 0.038596 0.972906 0.126235
v -0.076389 0.746278 0.098489
v 0.153556 0.706083 -0.047440
v 0.079200 2.534388 0.294353
v 0.259674 3.437016 1.475045
v 0.992516 3.020780 0.212121
v 0.744281 2.711388 -0.029909
v 0.707248 3.519576 1.094049
v 0.079200 2.555110 0.285087
v 0.075638 2.555127 0.282481
v 0.597701 3.020781 -0.331297
v -0.326390 3.519578 -0.328620
v -0.827150 3.437016 -0.020838
v -0.085490 0.709696 -0.065739
v -0.115705 0.499179 0.001219
v 0.016953 0.481545 0.090538
v 0.162128 0.494980 0.022487
v 0.174644 0.578862 -0.133218
v 0.038596 0.778729 -0.065884
v 0.076392 2.554642 0.324101
v 0.931376 3.437011 0.550535
v 0.259674 3.437016 -0.373975
v -0.502947 3.872306 0.214809
v -0.502947 3.872306 0.886494
v 0.135868 3.872306 1.094061
v 0.016953 0.379628 0.093575
v 0.162128 0.379628 0.024211
v 0.104435 1.002875 -0.410252
v 0.110765 1.009394 -0.324305
v 0.707248 3.519576 0.007226
v 0.530684 3.872303 0.550652
v 0.135868 3.872307 0.007243
v 0.039285 1.013152 -0.275872
v -0.103189 0.583061 -0.154486
v -0.115705 0.379628 0.002532
v 0.174644 0.379628 -0.136196
v 0.026625 1.000115 -0.447765
v -0.040694 4.034620 0.550652
v -0.038526 1.010392 -0.313385
v -0.160871 0.182765 0.096496
v 0.007699 0.182765 0.212185
v 0.192173 0.182765 0.124043
v 0.208077 0.182765 -0.079787
v 0.041986 0.379628 -0.227239
v 0.041986 0.543683 -0.224201
v 0.027333 1.172476 -0.571779
v 0.105141 1.172315 -0.534159
v 0.111465 1.172076 -0.447965
v 0.039981 1.171999 -0.399392
v -0.103189 0.379628 -0.157875
v -0.044856 1.003873 -0.399332
v -0.144967 0.182765 -0.107334
v -0.150523 -0.064519 0.110694
v 0.026536 -0.064519 0.212919
v 0.203595 -0.064519 0.110694
v 0.039507 0.182765 -0.195476
v -0.044151 1.172399 -0.523205
v -0.037827 1.172161 -0.437012
v -0.150523 -0.064519 -0.093756
v 0.203595 -0.064519 -0.093756
v 0.028163 1.455194 -0.684813
v 0.105957 1.455246 -0.647302
v -0.043340 1.455393 -0.636380
v 0.112242 1.455563 -0.561391
v 0.040743 1.455699 -0.512927
v -0.037055 1.455726 -0.550478
v 0.026536 -0.064519 -0.195981
v 0.109490 1.627267 -0.635790
v 0.043229 1.626846 -0.667765
v 0.023950 1.626684 -0.535392
v 0.053755 1.627083 -0.521040
v 0.008989 1.626347 -0.644731
v -0.017936 1.625954 -0.626568
v 0.111820 1.627063 -0.603828
v 0.114842 1.627392 -0.562484
v -0.015175 1.625929 -0.586012
v -0.012750 1.626191 -0.553134
v 0.087852 1.627255 -0.544190
v -0.016320 1.625798 -0.602532
v -0.037956 1.625585 -0.602314
v -0.351306 1.629393 -0.833423
v 0.080873 1.629393 -0.973849
v 0.347980 1.629393 -0.606214
v -0.351306 1.629393 -0.379006
v -0.232810 1.705836 -1.207039
v 0.080873 1.629393 -0.238580
v 0.466481 1.705836 -0.979828
v -0.664989 1.705837 -0.612192
v 0.163517 1.733534 -1.238759
v -0.571756 1.733534 -0.999851
v 0.466481 1.705836 -0.244557
v 0.617946 1.733536 -0.613298
v -0.571755 1.733534 -0.226744
v -0.232810 1.705836 -0.017345
v -0.040405 1.942849 -1.352971
v -0.472589 1.942849 -1.212546
v 0.163517 1.733534 0.012164
v 0.658885 1.942849 -0.844905
v 0.391780 1.942849 -1.212546
v -0.739695 1.942849 -0.390486
v -0.739695 1.942849 -0.844905
v 0.391780 1.942849 -0.022845
v 0.658885 1.942849 -0.390486
v -0.472589 1.942849 -0.022845
v -0.040404 1.942849 0.117581
v 0.152589 2.280301 -1.214349
v -0.243903 2.224446 -1.244895
v -0.546701 2.280300 -0.987138
v 0.584769 2.280300 -0.619502
v 0.491370 2.224445 -1.005987
v -0.698331 2.224443 -0.619433
v -0.546701 2.280300 -0.251867
v 0.152589 2.280301 -0.024656
v 0.491370 2.224445 -0.232880
v -0.243903 2.224446 0.006029
v 0.272036 2.518934 -0.846721
v -0.160144 2.518934 -0.987147
v -0.427250 2.518933 -0.619512
v 0.272036 2.518934 -0.392304
v -0.160143 2.518934 -0.251878
v -0.040694 2.628745 -0.619512
vn 0.0037 -0.9999 0.0114
vn -0.0098 -0.9999 0.0071
vn -0.0099 -0.9999 -0.0072
vn -0.1905 -0.9719 0.1384
vn 0.0721 -0.9724 0.2218
vn 0.0036 -0.9999 -0.0116
vn 0.0038 -0.9999 -0.0117
vn -0.1946 -0.9706 -0.1414
vn -0.3571 -0.9309 0.0772
vn -0.1802 -0.9333 0.3107
vn -0.0368 -0.9339 0.3556
vn 0.2395 -0.9335 0.2669
vn -0.1889 -0.9274 -0.3229
vn -0.3606 -0.9294 -0.0783
vn -0.8170 -0.4922 0.3004
vn -0.5361 -0.4994 0.6806
vn 0.0339 -0.5039 0.8631
vn 0.3303 -0.9325 0.1461
vn 0.4804 -0.5027 0.7187
vn -0.0370 -0.9271 -0.3729
vn -0.5427 -0.4762 -0.6919
vn -0.8226 -0.4820 -0.3017
vn -0.9814 -0.1920 0.0000
vn -0.7700 -0.3066 0.5595
vn -0.3019 -0.2129 0.9293
vn 0.0122 -0.9999 -0.0000
vn 0.2930 -0.3174 0.9019
vn 0.8358 -0.4956 0.2364
vn 0.2368 -0.9716 -0.0000
vn 0.7911 -0.2093 0.5748
vn 0.0038 -0.9999 -0.0118
vn 0.0746 -0.9704 -0.2296
vn 0.0323 -0.4745 -0.8797
vn -0.3042 -0.1752 -0.9364
vn -0.7760 -0.2828 -0.5638
vn -0.9767 0.2145 0.0000
vn -0.8006 0.1435 0.5817
vn -0.3022 0.2092 0.9300
vn 0.3060 0.1403 0.9417
vn 0.9537 -0.3006 0.0000
vn 0.3368 -0.9298 -0.1483
vn 0.7910 0.2101 0.5747
vn 0.2471 -0.9285 -0.2772
vn 0.2967 -0.2790 -0.9133
vn -0.3015 0.2187 -0.9280
vn -0.7998 0.1506 -0.5811
vn -0.8864 0.3770 -0.2686
vn -0.8875 0.3743 0.2686
vn -0.5300 0.3716 0.7622
vn -0.0194 0.3704 0.9287
vn 0.5614 0.3709 0.7398
vn 0.9894 0.1453 0.0000
vn 0.8400 -0.4876 -0.2382
vn 0.8764 0.3728 0.3048
vn 0.4895 -0.4783 -0.7291
vn 0.3054 0.1517 -0.9401
vn -0.0181 0.3795 -0.9250
vn -0.5291 0.3791 -0.7592
vn -0.6992 0.6641 -0.2648
vn -0.6992 0.6640 0.2649
vn -0.4681 0.6640 0.5831
vn 0.0360 0.6640 0.7469
vn 0.4099 0.6640 0.6254
vn 0.8754 0.3758 -0.3040
vn 0.7949 -0.1860 -0.5775
vn 0.7214 0.6640 0.1966
vn 0.5588 0.3782 -0.7380
vn 0.0358 0.6642 -0.7467
vn -0.4679 0.6641 -0.5831
vn -0.6066 0.7950 0.0000
vn -0.1875 0.7950 0.5769
vn 0.4908 0.7950 0.3566
vn 0.7899 0.2160 -0.5739
vn 0.7213 0.6641 -0.1967
vn 0.4100 0.6641 -0.6252
vn -0.1875 0.7950 -0.5769
vn -0.3313 0.9435 0.0000
vn -0.1024 0.9435 0.3151
vn 0.2680 0.9435 0.1947
vn 0.4908 0.7950 -0.3566
vn -0.1024 0.9435 -0.3151
vn 0.2680 0.9435 -0.1947
vn -0.0037 -0.9999 -0.0114
vn 0.0098 -0.9999 -0.0071
vn -0.0122 -0.9999 0.0000
vn -0.0721 -0.9724 -0.2218
vn 0.0099 -0.9999 0.0072
vn 0.1905 -0.9719 -0.1384
vn -0.2368 -0.9716 0.0000
vn -0.0038 -0.9999 0.0117
vn 0.0368 -0.9339 -0.3557
vn -0.2395 -0.9335 -0.2669
vn 0.1946 -0.9706 0.1414
vn 0.3571 -0.9309 -0.0772
vn 0.1802 -0.9333 -0.3107
vn -0.3368 -0.9298 0.1483
vn -0.3303 -0.9325 -0.1461
vn -0.0746 -0.9704 0.2296
vn -0.0339 -0.5039 -0.8631
vn -0.4804 -0.5027 -0.7187
vn 0.1889 -0.9274 0.3229
vn 0.3606 -0.9294 0.0783
vn 0.8170 -0.4922 -0.3004
vn 0.5361 -0.4994 -0.6806
vn -0.8400 -0.4876 0.2382
vn -0.2471 -0.9285 0.2772
vn -0.8358 -0.4956 -0.2364
vn 0.0370 -0.9271 0.3729
vn 0.3019 -0.2129 -0.9293
vn -0.2930 -0.3174 -0.9019
vn -0.7911 -0.2093 -0.5748
vn 0.5427 -0.4762 0.6919
vn 0.8226 -0.4820 0.3017
vn 0.9814 -0.1920 0.0000
vn 0.7700 -0.3066 -0.5595
vn -0.9537 -0.3006 0.0000
vn -0.7949 -0.1860 0.5775
vn -0.4895 -0.4783 0.7291
vn -0.0323 -0.4745 0.8797
vn 0.3022 0.2092 -0.9300
vn -0.3060 0.1403 -0.9417
vn -0.7910 0.2101 -0.5747
vn 0.3042 -0.1752 0.9364
vn 0.7760 -0.2828 0.5638
vn 0.9767 0.2145 0.0000
vn 0.8006 0.1435 -0.5817
vn -0.9894 0.1453 0.0000
vn -0.7899 0.2160 0.5739
vn -0.2967 -0.2790 0.9133
vn 0.5300 0.3716 -0.7622
vn 0.0194 0.3704 -0.9287
vn -0.5614 0.3709 -0.7398
vn -0.8764 0.3728 -0.3048
vn 0.3015 0.2187 0.9280
vn 0.7998 0.1506 0.5811
vn 0.8864 0.3770 0.2686
vn 0.8875 0.3743 -0.2686
vn -0.8754 0.3758 0.3040
vn -0.5588 0.3782 0.7380
vn -0.3054 0.1517 0.9401
vn 0.4681 0.6640 -0.5831
vn -0.0360 0.6640 -0.7469
vn -0.4099 0.6640 -0.6254
vn -0.7214 0.6640 -0.1966
vn 0.0181 0.3795 0.9250
vn 0.5291 0.3791 0.7592
vn 0.6992 0.6641 0.2648
vn 0.6992 0.6640 -0.2649
vn -0.7213 0.6641 0.1967
vn -0.4100 0.6641 0.6252
vn 0.1875 0.7950 -0.5769
vn -0.4908 0.7950 -0.3566
vn -0.0358 0.6642 0.7467
vn 0.4679 0.6641 0.5831
vn 0.6066 0.7950 0.0000
vn -0.4908 0.7950 0.3566
vn 0.1024 0.9435 -0.3151
vn -0.2680 0.9435 -0.1947
vn 0.1875 0.7950 0.5769
vn 0.3313 0.9435 0.0000
vn -0.2680 0.9435 0.1947
vn 0.1024 0.9435 0.3151
vn 0.0039 -0.9999 -0.0118
vn 0.0037 -0.9999 -0.0116
vn 0.0100 -0.9999 0.0072
vn -0.5658 -0.1132 0.8167
vn -0.9968 0.0253 -0.0759
vn -0.9963 0.0345 -0.0789
vn -0.9957 0.0286 -0.0882
vn 0.4311 -0.1252 0.8936
vn -0.9969 0.0248 -0.0748
vn -0.9965 0.0250 -0.0794
vn -0.9964 0.0354 -0.0775
vn -0.5577 -0.2756 0.7829
vn -0.5575 -0.2756 0.7831
vn -0.5577 -0.2756 0.7830
vn 0.9969 0.0024 0.0791
vn 0.9963 0.0014 0.0861
vn 0.9969 0.0025 0.0785
vn -0.4613 0.1422 -0.8758
vn -0.4613 0.1422 -0.8757
vn 0.4235 -0.3034 0.8536
vn 0.4234 -0.3034 0.8536
vn 0.9964 -0.0007 0.0843
vn 0.9961 0.0077 0.0877
vn 0.9970 0.0025 0.0779
vn -0.4311 0.1494 -0.8899
vn -0.5170 0.6193 0.5910
vn -0.5169 0.6193 0.5910
vn -0.9966 0.0540 -0.0615
vn -0.9966 0.0540 -0.0616
vn -0.9986 0.0526 -0.0068
vn -0.5369 -0.4044 0.7404
vn 0.4051 -0.4382 0.8024
vn 0.9965 -0.0021 0.0838
vn 0.5658 0.1329 -0.8137
vn 0.5953 0.1344 -0.7922
vn -0.5565 0.6059 0.5685
vn 0.4212 0.6726 0.6084
vn -0.4232 -0.3691 -0.8274
vn -0.4256 -0.3691 -0.8262
vn -0.9964 -0.0162 -0.0830
vn -0.9965 0.0402 -0.0736
vn -0.4945 -0.5911 0.6372
vn 0.3685 -0.6314 0.6823
vn 0.9965 -0.0402 0.0736
vn 0.5270 0.3314 -0.7826
vn 0.9960 0.0893 0.0053
vn 0.5070 0.6331 0.5850
vn 0.5071 0.6330 0.5850
vn -0.4208 -0.3691 -0.8286
vn -0.4220 -0.3691 -0.8280
vn -0.5881 -0.5634 -0.5803
vn -0.9968 -0.0327 -0.0732
vn -0.9968 -0.0326 -0.0728
vn -0.9969 -0.0324 -0.0723
vn -0.3902 0.3568 -0.8488
vn -0.4051 0.4382 -0.8024
vn -0.9991 0.0426 -0.0036
vn 0.9865 -0.0889 0.1372
vn 0.9866 -0.0889 0.1372
vn 0.5369 0.4044 -0.7404
vn 0.5550 -0.3393 -0.7595
vn 0.5597 -0.3372 -0.7570
vn -0.9969 -0.0324 -0.0720
vn -0.3590 0.6546 -0.6654
vn -0.3590 0.6545 -0.6654
vn -0.5647 -0.2230 0.7946
vn 0.4296 -0.2570 0.8657
vn 0.9869 0.0854 0.1367
vn 0.9869 0.0853 0.1367
vn 0.9869 0.0853 0.1366
vn 0.4822 0.6143 -0.6246
vn 0.6768 -0.5070 -0.5338
vn 0.6768 -0.5068 -0.5340
vn 0.5545 -0.3396 -0.7597
vn 0.5558 -0.3390 -0.7591
vn -0.9877 0.1553 0.0166
vn -0.9893 0.1455 0.0110
vn -0.9893 0.1455 0.0109
vn -0.5614 0.0162 0.8274
vn 0.4270 0.0198 0.9040
vn 0.4269 0.0198 0.9041
vn 0.9903 0.1373 -0.0218
vn 0.3704 0.6392 0.6740
vn 0.9969 0.0323 0.0721
vn -0.3515 0.6264 0.6958
vn -0.3515 0.6263 0.6958
vn 0.9969 -0.0002 0.0788
vn 0.9969 -0.0001 0.0787
vn 0.9969 -0.0003 0.0788
vn 0.5310 -0.3792 -0.7578
vn -0.9969 0.0003 -0.0787
vn -0.9969 0.0004 -0.0787
vn -0.9969 0.0004 -0.0788
vn -0.9876 0.1558 0.0171
vn -0.9877 0.1553 0.0165
vn -0.5013 0.4637 0.7305
vn 0.3820 0.4637 0.7994
vn 0.9792 0.1882 0.0764
vn 0.5646 0.0138 -0.8253
vn 0.5644 0.0136 -0.8254
vn 0.3716 -0.5461 -0.7508
vn 0.9958 -0.0572 -0.0711
vn 0.9958 -0.0573 -0.0712
vn 0.4849 0.5317 0.6944
vn -0.3651 0.5694 0.7366
vn -0.9792 0.1882 -0.0764
vn -0.5333 -0.0059 0.8459
vn -0.5334 -0.0059 0.8459
vn 0.4659 0.0059 0.8848
vn 0.9992 0.0119 0.0389
vn 0.5604 -0.1388 -0.8165
vn -0.4995 -0.3889 -0.7741
vn -0.4996 -0.3885 -0.7742
vn -0.4996 -0.3889 -0.7741
vn -0.4917 -0.5108 -0.7052
vn -0.4302 0.0158 -0.9026
vn -0.4303 0.0159 -0.9025
vn -0.4301 0.0157 -0.9026
vn -0.9958 0.0575 0.0712
vn -0.9958 0.0575 0.0711
vn -0.4269 -0.1388 -0.8936
vn -0.9992 -0.0119 -0.0389
vn 0.5333 0.0060 -0.8459
vn 0.5333 0.0059 -0.8459
vn 0.4088 -0.3399 -0.8470
vn 0.4087 -0.3399 -0.8470
vn -0.5337 -0.3127 -0.7857
vn -0.5336 -0.3127 -0.7858
vn 0.9968 -0.0320 -0.0732
vn 0.9968 -0.0320 -0.0729
vn 0.5335 0.3130 0.7857
vn 0.5333 0.3130 0.7859
vn 0.5336 0.3130 0.7857
vn -0.4087 0.3400 0.8470
vn -0.4088 0.3400 0.8469
vn -0.4659 -0.0059 -0.8848
vn 0.0000 -1.0000 -0.0000
vn 0.4337 0.0513 -0.8996
vn 0.4338 0.0513 -0.8996
vn -0.9968 0.0320 0.0728
vn -0.9968 0.0320 0.0733
vn -0.4345 0.0759 0.8975
vn -0.4334 0.0754 0.8980
vn -0.5553 0.1301 -0.8214
vn -0.5558 0.1300 -0.8211
vn 0.9972 -0.0156 -0.0728
vn 0.9972 -0.0156 -0.0729
vn -0.5547 0.1303 -0.8218
vn -0.5549 0.1302 -0.8216
vn -0.9874 0.1431 0.0677
vn -0.9873 0.1419 0.0717
vn 0.5613 -0.0033 0.8276
vn 0.5611 -0.0032 0.8278
vn -0.4348 0.0760 0.8973
vn -0.4344 0.0758 0.8975
vn 0.5617 -0.0035 0.8273
vn 0.5612 -0.0033 0.8277
vn -0.9874 0.1429 0.0684
vn -0.9874 0.1432 0.0673
vn -0.5576 -0.2756 0.7830
vn 0.9968 0.0034 0.0793
vn -0.4946 -0.5911 0.6372
vn 0.6769 -0.5057 -0.5348
vn -0.5614 0.0163 0.8274
vn 0.9903 0.1372 -0.0218
vn -0.9969 0.0006 -0.0788
vn 0.5645 0.0137 -0.8253
vn 0.9958 -0.0572 -0.0712
vn 0.4848 0.5317 0.6944
vn -0.4303 0.0159 -0.9026
vn 0.9968 -0.0320 -0.0728
vn -0.9968 0.0320 0.0732
usemtl Leaves
s 1
f 3//1 4//1 8//1
f 21//1 34//1 15//1
f 4//2 3//2 9//2
f 4//3 9//3 17//3
f 9//4 3//4 18//4
f 3//5 15//5 22//5
f 39//6 43//7 17//7
f 17//8 9//8 26//8
f 9//9 18//9 27//9
f 3//10 28//10 18//10
f 3//11 22//11 28//11
f 15//12 35//12 22//12
f 17//13 26//13 40//13
f 9//14 27//14 26//14
f 27//15 18//15 41//15
f 18//16 28//16 42//16
f 28//17 22//17 49//17
f 35//18 15//18 50//18
f 22//19 35//19 51//19
f 17//20 40//20 57//20
f 40//21 26//21 58//21
f 26//22 27//22 59//22
f 27//23 41//23 59//23
f 41//24 18//24 42//24
f 28//25 49//25 42//25
f 15//26 4//26 68//26
f 49//27 22//27 51//27
f 35//28 50//28 69//28
f 50//29 15//29 68//29
f 35//30 69//30 51//30
f 83//31 84//7 68//7
f 68//32 17//32 57//32
f 57//33 40//33 70//33
f 40//34 58//34 70//34
f 58//35 26//35 59//35
f 59//36 41//36 71//36
f 41//37 42//37 72//37
f 42//38 49//38 73//38
f 49//39 51//39 79//39
f 69//40 50//40 80//40
f 50//41 68//41 81//41
f 51//42 69//42 82//42
f 68//43 57//43 81//43
f 85//44 57//44 70//44
f 70//45 58//45 86//45
f 58//46 59//46 87//46
f 59//47 71//47 87//47
f 41//48 72//48 71//48
f 42//49 73//49 72//49
f 49//50 79//50 73//50
f 51//51 82//51 79//51
f 69//52 80//52 95//52
f 50//53 81//53 80//53
f 69//54 95//54 82//54
f 81//55 57//55 85//55
f 85//56 70//56 96//56
f 70//57 86//57 96//57
f 58//58 87//58 86//58
f 87//59 71//59 97//59
f 71//60 72//60 98//60
f 72//61 73//61 98//61
f 73//62 79//62 99//62
f 79//63 82//63 99//63
f 80//64 104//64 95//64
f 81//65 85//65 80//65
f 82//66 95//66 105//66
f 85//67 96//67 104//67
f 96//68 86//68 106//68
f 86//69 87//69 97//69
f 97//70 71//70 98//70
f 98//71 73//71 99//71
f 99//72 82//72 105//72
f 80//73 85//73 104//73
f 95//74 104//74 105//74
f 104//75 96//75 106//75
f 106//76 86//76 97//76
f 97//77 98//77 112//77
f 98//78 99//78 112//78
f 99//79 105//79 112//79
f 105//80 104//80 106//80
f 106//81 97//81 112//81
f 105//82 106//82 112//82
f 154//83 155//83 156//83
f 156//84 143//84 146//84
f 155//85 154//85 158//85
f 156//86 155//86 159//86
f 144//87 145//87 160//87
f 157//88 156//88 161//88
f 162//89 155//89 158//89
f 154//90 160//90 158//90
f 156//91 159//91 163//91
f 155//92 164//92 159//92
f 160//93 157//93 165//93
f 157//94 161//94 166//94
f 156//95 163//95 161//95
f 162//96 158//96 167//96
f 164//97 155//97 162//97
f 158//98 160//98 168//98
f 163//99 159//99 169//99
f 159//100 164//100 170//100
f 160//101 165//101 171//101
f 157//102 166//102 165//102
f 166//103 161//103 172//103
f 161//104 163//104 173//104
f 162//105 167//105 174//105
f 158//106 168//106 167//106
f 164//107 162//107 175//107
f 160//108 171//108 168//108
f 163//109 169//109 173//109
f 169//110 159//110 170//110
f 164//111 175//111 170//111
f 171//112 165//112 176//112
f 165//113 166//113 177//113
f 166//114 172//114 177//114
f 172//115 161//115 173//115
f 175//116 162//116 174//116
f 167//117 178//117 174//117
f 167//118 168//118 178//118
f 168//119 171//119 179//119
f 173//120 169//120 180//120
f 169//121 170//121 181//121
f 170//122 175//122 182//122
f 171//123 176//123 179//123
f 176//124 165//124 177//124
f 177//125 172//125 183//125
f 172//126 173//126 184//126
f 175//127 174//127 185//127
f 174//128 178//128 186//128
f 178//129 168//129 179//129
f 173//130 180//130 184//130
f 169//131 181//131 180//131
f 170//132 182//132 181//132
f 175//133 185//133 182//133
f 179//134 176//134 187//134
f 176//135 177//135 188//135
f 177//136 183//136 188//136
f 172//137 184//137 183//137
f 174//138 186//138 185//138
f 178//139 189//139 186//139
f 178//140 179//140 189//140
f 184//141 180//141 190//141
f 180//142 181//142 191//142
f 181//143 182//143 191//143
f 182//144 185//144 192//144
f 179//145 187//145 189//145
f 176//146 188//146 187//146
f 188//147 183//147 193//147
f 183//148 184//148 190//148
f 185//149 186//149 192//149
f 186//150 189//150 194//150
f 190//151 180//151 191//151
f 191//152 182//152 192//152
f 189//153 187//153 194//153
f 187//154 188//154 193//154
f 193//155 183//155 190//155
f 192//156 186//156 194//156
f 190//157 191//157 195//157
f 191//158 192//158 195//158
f 194//159 187//159 193//159
f 193//160 190//160 195//160
f 192//161 194//161 195//161
f 194//162 193//162 195//162
f 1//1 2//1 3//1
f 4//1 23//1 16//1
f 8//1 10//1 3//1
f 10//1 1//1 3//1
f 4//1 16//1 8//1
f 3//1 2//1 15//1
f 2//1 7//1 15//1
f 23//1 4//1 48//1
f 4//1 15//1 34//1
f 34//1 48//1 4//1
f 15//1 7//1 21//1
f 56//7 61//7 17//7
f 61//7 39//6 17//7
f 25//163 56//7 17//7
f 17//7 53//7 38//31
f 17//7 38//31 25//163
f 36//7 37//7 4//7
f 43//7 36//7 4//7
f 4//7 17//7 43//7
f 53//7 17//7 68//7
f 68//7 4//7 67//7
f 4//7 37//7 52//164
f 4//7 52//164 67//7
f 84//7 53//7 68//7
f 67//7 94//7 68//7
f 94//7 83//31 68//7
f 157//84 148//84 142//84
f 157//84 142//84 156//84
f 142//84 143//84 156//84
f 147//84 153//84 154//84
f 147//84 154//84 156//84
f 146//84 147//84 156//84
f 154//87 153//87 150//87
f 154//87 150//87 151//165
f 149//87 148//87 157//87
f 145//87 152//165 160//87
f 152//165 149//87 160//87
f 149//87 157//87 160//87
f 160//87 154//87 151//165
f 160//87 151//165 144//87
usemtl Tree
f 1//166 6//166 2//166
f 10//167 5//168 1//169
f 13//166 5//166 12//166
f 6//170 7//170 2//170
f 8//171 11//172 10//167
f 5//168 29//173 12//173
f 12//174 19//175 13//176
f 13//170 14//170 6//170
f 7//177 14//178 21//179
f 24//180 8//181 16//181
f 19//182 20//183 13//183
f 32//184 14//178 20//185
f 14//178 34//186 21//179
f 23//187 24//187 16//187
f 36//188 24//189 37//188
f 12//190 60//190 30//191
f 29//192 43//192 39//192
f 45//193 30//193 44//193
f 45//194 31//194 19//194
f 47//195 20//185 31//195
f 34//196 33//196 48//196
f 48//197 24//197 23//197
f 43//198 11//198 36//198
f 37//199 24//199 52//199
f 38//200 55//201 25//201
f 39//202 55//202 29//202
f 44//203 60//203 62//203
f 44//204 63//204 45//204
f 46//205 63//205 64//205
f 46//206 47//206 31//206
f 47//207 74//207 32//207
f 78//208 94//208 67//208
f 24//209 67//210 52//210
f 53//211 54//212 38//200
f 55//213 74//213 29//213
f 25//214 55//215 56//216
f 74//217 60//217 29//217
f 62//218 66//218 75//218
f 62//219 76//219 44//219
f 64//220 65//221 46//220
f 65//222 66//222 47//222
f 84//223 54//224 53//224
f 56//216 55//215 61//225
f 62//226 93//227 88//227
f 90//228 76//228 89//228
f 90//229 64//229 63//229
f 77//230 91//231 92//232
f 77//233 75//233 65//233
f 74//234 78//234 32//235
f 83//236 78//237 84//223
f 88//238 89//239 76//240
f 90//241 109//241 100//241
f 90//242 101//243 91//243
f 92//244 103//244 77//244
f 103//245 93//245 77//245
f 94//246 78//246 83//246
f 93//247 113//248 88//248
f 110//249 91//250 101//251
f 102//252 119//252 111//252
f 89//253 124//254 109//255
f 113//256 108//257 88//238
f 114//258 100//258 109//258
f 116//259 100//259 115//259
f 117//260 101//260 116//260
f 110//261 119//262 92//262
f 111//263 121//263 102//263
f 102//264 122//265 103//264
f 103//266 123//266 107//266
f 123//267 113//267 107//267
f 126//268 109//268 124//268
f 127//269 115//270 114//269
f 128//271 116//271 115//271
f 129//272 117//272 116//272
f 130//273 110//273 117//273
f 119//274 125//275 111//276
f 111//277 131//277 120//277
f 119//278 124//279 108//280
f 132//281 125//282 113//282
f 130//283 124//283 118//283
f 133//284 114//284 126//284
f 134//285 130//286 117//286
f 120//287 136//288 121//287
f 137//289 120//290 131//290
f 121//291 138//292 122//291
f 122//293 139//294 123//295
f 139//296 132//297 123//297
f 141//298 126//298 130//298
f 128//299 127//299 133//299
f 136//300 143//301 142//301
f 131//302 140//303 137//303
f 144//304 139//305 145//305
f 146//306 137//307 147//307
f 148//308 149//308 138//309
f 143//310 135//311 146//306
f 150//312 140//313 151//313
f 152//314 138//315 149//315
f 151//316 140//317 144//304
f 145//318 139//319 152//314
f 137//320 153//321 147//321
f 1//166 5//166 6//166
f 10//167 11//172 5//168
f 13//166 6//166 5//166
f 6//170 14//170 7//170
f 5//168 11//172 29//173
f 12//174 30//322 19//175
f 13//170 20//170 14//170
f 24//180 11//180 8//181
f 19//182 31//183 20//183
f 32//184 33//323 14//178
f 14//178 33//323 34//186
f 36//188 11//189 24//189
f 12//190 29//190 60//190
f 29//192 11//192 43//192
f 45//193 19//193 30//193
f 45//194 46//194 31//194
f 47//195 32//184 20//185
f 48//197 33//197 24//197
f 38//200 54//212 55//201
f 39//202 61//202 55//202
f 44//203 30//203 60//203
f 44//204 76//324 63//204
f 46//205 45//205 63//205
f 46//206 65//206 47//206
f 47//207 66//207 74//207
f 67//208 33//208 78//208
f 33//208 32//208 78//208
f 24//209 33//209 67//210
f 55//213 54//213 74//213
f 74//217 66//217 60//217
f 62//218 60//218 66//218
f 62//219 88//219 76//219
f 64//220 77//221 65//221
f 65//222 75//222 66//222
f 84//223 78//237 54//224
f 62//226 75//227 93//227
f 90//228 63//228 76//228
f 90//229 91//229 64//229
f 77//230 64//231 91//231
f 77//233 93//233 75//233
f 74//234 54//325 78//234
f 88//238 108//257 89//239
f 90//241 89//326 109//241
f 90//242 100//243 101//243
f 92//244 102//327 103//244
f 103//245 107//245 93//245
f 93//247 107//248 113//248
f 110//249 92//251 91//250
f 102//252 92//252 119//252
f 89//253 108//328 124//254
f 113//256 125//256 108//257
f 114//258 115//258 100//258
f 116//259 101//259 100//259
f 117//260 110//260 101//260
f 110//261 118//329 119//262
f 111//263 120//263 121//263
f 102//264 121//330 122//265
f 103//266 122//331 123//266
f 123//267 132//267 113//267
f 126//268 114//268 109//268
f 127//269 128//269 115//270
f 128//271 129//271 116//271
f 129//272 134//272 117//272
f 130//273 118//273 110//273
f 119//274 108//276 125//275
f 111//277 125//277 131//277
f 119//278 118//332 124//279
f 132//281 131//281 125//282
f 130//283 126//283 124//283
f 133//284 127//284 114//284
f 134//285 141//286 130//286
f 120//287 135//288 136//288
f 137//289 135//290 120//290
f 121//291 136//333 138//292
f 122//293 138//294 139//294
f 139//296 140//296 132//297
f 141//298 133//298 126//298
f 133//299 141//299 128//299
f 141//299 134//299 128//299
f 134//299 129//299 128//299
f 136//300 135//300 143//301
f 131//302 132//334 140//303
f 144//304 140//317 139//305
f 146//306 135//311 137//307
f 138//309 136//309 148//308
f 136//309 142//308 148//308
f 150//312 137//320 140//313
f 152//314 139//319 138//315
f 137//320 150//312 153//321
